<svg width="34" height="34" viewBox="0 0 34 34" fill="none" xmlns="http://www.w3.org/2000/svg">
<circle cx="17" cy="17" r="17" fill="#0C4AB3"/>
<path d="M17.6616 15.24C16.6616 15.24 15.7016 15.48 14.9216 15.96L14.8816 15.92C15.7016 13.72 17.5616 12.46 20.0016 11.78L19.2616 9.84C15.2016 10.58 12.1216 14.06 12.1216 18.62C12.1216 21.98 14.2816 24.16 17.0216 24.16C19.7816 24.16 21.9216 22.28 21.9216 19.66C21.9216 16.86 20.0616 15.24 17.6616 15.24ZM17.1816 22C15.6616 22 14.3816 20.74 14.3816 18.9V18.72C14.9616 17.98 15.9216 17.34 17.0816 17.34C18.6016 17.34 19.6016 18.3 19.6016 19.62C19.6016 20.9 18.6216 22 17.1816 22Z" fill="white"/>
</svg>
