<svg width="34" height="34" viewBox="0 0 34 34" fill="none" xmlns="http://www.w3.org/2000/svg">
<circle cx="17" cy="17" r="17" fill="#0C4AB3"/>
<path d="M17.2755 15.18C16.7955 15.18 16.1355 15.28 15.4955 15.48L15.6755 12.4H20.9355V10.26H13.4955L13.0955 17.46L14.3555 17.9C15.0155 17.36 15.7555 17.18 16.5955 17.18C17.8955 17.18 19.2555 18.02 19.2555 19.56C19.2555 20.96 18.2355 22.02 16.5555 22.02C15.3355 22.02 14.3355 21.44 13.7555 20.6L12.0755 21.94C13.1555 23.38 14.8755 24.16 16.7555 24.16C19.6755 24.16 21.6155 22.3 21.6155 19.6C21.6155 16.84 19.6555 15.18 17.2755 15.18Z" fill="white"/>
</svg>
