<svg width="34" height="34" viewBox="0 0 34 34" fill="none" xmlns="http://www.w3.org/2000/svg">
<circle cx="17" cy="17" r="17" fill="#0C4AB3"/>
<path d="M17.402 24.16C20.022 24.16 21.962 22.62 21.962 20.28C21.962 18.68 21.082 17.5 19.762 16.9V16.84C20.902 16.22 21.582 15.1 21.582 13.76C21.582 11.44 19.642 10.12 17.242 10.12C15.242 10.12 13.722 11.1 13.062 12.46L14.922 13.46C15.362 12.76 16.042 12.26 17.182 12.26C18.322 12.26 19.242 13.02 19.242 14.12C19.242 15.08 18.682 15.94 17.242 15.94H15.982V17.9H17.022C18.742 17.9 19.602 18.88 19.602 19.96C19.602 21.2 18.542 22 17.242 22C15.862 22 14.982 21.38 14.562 20.36L12.562 21.24C13.242 22.92 15.002 24.16 17.402 24.16Z" fill="white"/>
</svg>
