<svg width="84" height="100" viewBox="0 0 84 100" fill="none" xmlns="http://www.w3.org/2000/svg">
<path fill-rule="evenodd" clip-rule="evenodd" d="M26.3754 62.2135C26.3754 61.7048 26.8126 61.291 27.352 61.291H56.649C57.1884 61.291 57.6256 61.7048 57.6256 62.2135C57.6256 62.7235 57.1884 63.136 56.649 63.136H27.352C26.8126 63.136 26.3754 62.7235 26.3754 62.2135ZM28.3286 65.9035C28.3286 65.3935 28.7657 64.981 29.3051 64.981H44.9302C45.4696 64.981 45.9067 65.3935 45.9067 65.9035C45.9067 66.4122 45.4696 66.8247 44.9302 66.8247H29.3051C28.7657 66.8247 28.3286 66.4122 28.3286 65.9035ZM27.352 68.6698C26.8126 68.6698 26.3754 69.0835 26.3754 69.5923C26.3754 70.1023 26.8126 70.5148 27.352 70.5148H54.6959C55.2352 70.5148 55.6725 70.1023 55.6725 69.5923C55.6725 69.0835 55.2352 68.6698 54.6959 68.6698H27.352ZM28.3286 73.281C28.3286 72.7723 28.7657 72.3598 29.3051 72.3598H41.024C41.5632 72.3598 42.0005 72.7723 42.0005 73.281C42.0005 73.791 41.5632 74.2035 41.024 74.2035H29.3051C28.7657 74.2035 28.3286 73.791 28.3286 73.281ZM29.3051 76.0485C28.7657 76.0485 28.3286 76.461 28.3286 76.971C28.3286 77.4798 28.7657 77.8935 29.3051 77.8935H41.024C41.5632 77.8935 42.0005 77.4798 42.0005 76.971C42.0005 76.461 41.5632 76.0485 41.024 76.0485H29.3051Z" fill="#E4E8F4"/>
<path d="M11.3412 69.5217C11.0145 69.5217 10.7504 69.7704 10.7504 70.0792C10.7504 70.3879 11.0145 70.6367 11.3412 70.6367C12.0284 70.6367 12.5702 70.8467 12.9974 71.2767C14.2447 72.5354 14.0769 75.1754 14.074 75.2404V82.3554C14.074 84.1479 14.601 85.5304 15.6391 86.4604C16.8852 87.5792 18.458 87.6579 18.8764 87.6579C18.9342 87.6579 18.9697 87.6554 18.9791 87.6554C19.3054 87.6404 19.5559 87.3779 19.5387 87.0692C19.5216 86.7604 19.2386 86.5229 18.9177 86.5404C18.9024 86.5479 17.5085 86.5992 16.4527 85.6517C15.6574 84.9392 15.2556 83.8291 15.2556 82.3554L15.2545 75.2779C15.2639 75.1504 15.4601 72.1292 13.8624 70.5167C13.6976 70.3504 13.5191 70.2029 13.3301 70.0792C13.5191 69.9542 13.6976 69.8092 13.8624 69.6417C15.4601 68.0279 15.2639 65.0079 15.2556 64.9179V57.8029C15.2556 56.3354 15.6551 55.2292 16.4432 54.5154C17.4872 53.5704 18.9 53.6154 18.9206 53.6167C19.2462 53.6367 19.5216 53.3967 19.5387 53.0892C19.5546 52.7804 19.3047 52.5192 18.9791 52.5029C18.8976 52.5029 17.0589 52.4242 15.6402 53.6979C14.601 54.6304 14.0751 56.0117 14.0751 57.8029L14.0764 64.9554C14.1295 65.6904 14.0385 67.8292 13.0004 68.8792C12.5714 69.3117 12.0296 69.5217 11.3412 69.5217Z" fill="#3980FF"/>
<path d="M72.6596 69.5217C72.9864 69.5217 73.2504 69.7704 73.2504 70.0792C73.2504 70.3879 72.9864 70.6367 72.6596 70.6367C71.9724 70.6367 71.4306 70.8467 71.0034 71.2767C69.7561 72.5354 69.924 75.1754 69.9269 75.2404V82.3554C69.9269 84.1479 69.3999 85.5304 68.3618 86.4604C67.1156 87.5792 65.5428 87.6579 65.1245 87.6579C65.0666 87.6579 65.0311 87.6554 65.0216 87.6554C64.6955 87.6404 64.445 87.3779 64.4621 87.0692C64.4793 86.7604 64.7623 86.5229 65.0831 86.5404C65.0985 86.5479 66.4923 86.5992 67.5481 85.6517C68.3434 84.9392 68.7453 83.8291 68.7453 82.3554L68.7464 75.2779C68.7369 75.1504 68.5408 72.1292 70.1384 70.5167C70.3033 70.3504 70.4818 70.2029 70.6708 70.0792C70.4818 69.9542 70.3033 69.8092 70.1384 69.6417C68.5408 68.0279 68.7369 65.0079 68.7453 64.9179V57.8029C68.7453 56.3354 68.3458 55.2292 67.5576 54.5154C66.5136 53.5704 65.1009 53.6154 65.0801 53.6167C64.7546 53.6367 64.4793 53.3967 64.4621 53.0892C64.4463 52.7804 64.6961 52.5192 65.0216 52.5029C65.1033 52.5029 66.942 52.4242 68.3606 53.6979C69.3999 54.6304 69.9258 56.0117 69.9258 57.8029L69.9245 64.9554C69.8714 65.6904 69.9624 67.8292 71.0005 68.8792C71.4294 69.3117 71.9713 69.5217 72.6596 69.5217Z" fill="#3980FF"/>
<path d="M67.9083 18.2519C67.9571 18.5516 68.2139 18.7764 68.5176 18.7764H74.9772C78.8417 18.7764 81.9746 21.9092 81.9746 25.7744V91.7531C81.9746 95.6181 78.8417 98.7506 74.9772 98.7506H8.99782C5.13319 98.7506 2.00037 95.6181 2.00037 91.7531V25.7744C2.00037 21.9092 5.13319 18.7764 8.99782 18.7764H15.4832C15.7868 18.7764 16.0437 18.5516 16.0924 18.2519C16.1539 17.8739 15.8659 17.5264 15.4831 17.5264H8.99782C4.44287 17.5264 0.750366 21.2189 0.750366 25.7744V91.7531C0.750366 96.3081 4.44287 100.001 8.99782 100.001H74.9772C79.5321 100.001 83.2246 96.3081 83.2246 91.7531V25.7744C83.2246 21.2189 79.5321 17.5264 74.9772 17.5264H68.5177C68.1348 17.5264 67.8468 17.8739 67.9083 18.2519Z" fill="#14161D"/>
<path d="M42.3196 44.6393C54.6464 44.6393 64.6392 34.6464 64.6392 22.3196C64.6392 9.99284 54.6464 0 42.3196 0C29.9928 0 20 9.99284 20 22.3196C20 34.6464 29.9928 44.6393 42.3196 44.6393Z" fill="#FEF4FF"/>
<path d="M37.2 18.7998V18.2998C36.9238 18.2998 36.7 18.5237 36.7 18.7998H37.2ZM37.2 20.3998L37.5535 20.7534L37.7 20.6069V20.3998H37.2ZM34.4686 20.8684L34.1151 21.222H34.1151L34.4686 20.8684ZM40.4 30.7998H40.9V30.5927L40.7535 30.4463L40.4 30.7998ZM38.8 29.1998H38.3V29.4069L38.4464 29.5534L38.8 29.1998ZM38.8 26.7998H39.3V26.5927L39.1535 26.4463L38.8 26.7998ZM37.2 25.1998H36.7V25.4069L36.8464 25.5534L37.2 25.1998ZM37.2 23.5998V23.0998C36.9238 23.0998 36.7 23.3237 36.7 23.5998H37.2ZM44.7 10.7998V13.9998H45.7V10.7998H44.7ZM43.6 15.0998H42V16.0998H43.6V15.0998ZM38.8 18.2998H37.2V19.2998H38.8V18.2998ZM36.7 18.7998V20.3998H37.7V18.7998H36.7ZM36.8464 20.0463L36.3778 20.5149L37.0849 21.222L37.5535 20.7534L36.8464 20.0463ZM34.8222 20.5149L31.9535 17.6463L31.2464 18.3534L34.1151 21.222L34.8222 20.5149ZM39.9 17.1998C39.9 17.8073 39.4075 18.2998 38.8 18.2998V19.2998C39.9598 19.2998 40.9 18.3596 40.9 17.1998H39.9ZM42 15.0998C40.8402 15.0998 39.9 16.04 39.9 17.1998H40.9C40.9 16.5923 41.3925 16.0998 42 16.0998V15.0998ZM36.3778 20.5149C35.9482 20.9445 35.2517 20.9445 34.8222 20.5149L34.1151 21.222C34.9352 22.0421 36.2648 22.0421 37.0849 21.222L36.3778 20.5149ZM44.7 13.9998C44.7 14.6073 44.2075 15.0998 43.6 15.0998V16.0998C44.7598 16.0998 45.7 15.1596 45.7 13.9998H44.7ZM40.9 33.1998V30.7998H39.9V33.1998H40.9ZM40.7535 30.4463L39.1535 28.8463L38.4464 29.5534L40.0464 31.1534L40.7535 30.4463ZM39.3 29.1998V26.7998H38.3V29.1998H39.3ZM39.1535 26.4463L37.5535 24.8463L36.8464 25.5534L38.4464 27.1534L39.1535 26.4463ZM37.7 25.1998V23.5998H36.7V25.1998H37.7ZM37.2 24.0998H43.6V23.0998H37.2V24.0998ZM44.7 25.1998V26.2665H45.7V25.1998H44.7ZM47.3333 28.8998H51.6V27.8998H47.3333V28.8998ZM46.3 27.8665C46.3 28.4372 46.7626 28.8998 47.3333 28.8998V27.8998C47.3149 27.8998 47.3 27.8849 47.3 27.8665H46.3ZM45.7333 27.2998C46.0463 27.2998 46.3 27.5535 46.3 27.8665H47.3C47.3 27.0012 46.5986 26.2998 45.7333 26.2998V27.2998ZM44.7 26.2665C44.7 26.8372 45.1626 27.2998 45.7333 27.2998V26.2998C45.7149 26.2998 45.7 26.2849 45.7 26.2665H44.7ZM43.6 24.0998C44.2075 24.0998 44.7 24.5923 44.7 25.1998H45.7C45.7 24.04 44.7598 23.0998 43.6 23.0998V24.0998ZM42 32.6998C36.0905 32.6998 31.3 27.9093 31.3 21.9998H30.3C30.3 28.4615 35.5383 33.6998 42 33.6998V32.6998ZM52.7 21.9998C52.7 27.9093 47.9094 32.6998 42 32.6998V33.6998C48.4617 33.6998 53.7 28.4615 53.7 21.9998H52.7ZM42 11.2998C47.9094 11.2998 52.7 16.0904 52.7 21.9998H53.7C53.7 15.5381 48.4617 10.2998 42 10.2998V11.2998ZM42 10.2998C35.5383 10.2998 30.3 15.5381 30.3 21.9998H31.3C31.3 16.0904 36.0905 11.2998 42 11.2998V10.2998Z" fill="black"/>
</svg>
