<svg width="26" height="26" viewBox="0 0 26 26" fill="none" xmlns="http://www.w3.org/2000/svg">
<path d="M20.6375 5.31956C19.6443 4.31631 18.4613 3.52086 17.1574 2.97961C15.8536 2.43836 14.455 2.16214 13.0433 2.16706C7.12834 2.16706 2.30751 6.98789 2.30751 12.9029C2.30751 14.7987 2.80584 16.6404 3.73751 18.2654L2.22084 23.8337L7.90834 22.3387C9.47917 23.1946 11.245 23.6496 13.0433 23.6496C18.9583 23.6496 23.7792 18.8287 23.7792 12.9137C23.7792 10.0429 22.6633 7.34539 20.6375 5.31956ZM13.0433 21.8296C11.44 21.8296 9.86917 21.3962 8.49334 20.5837L8.16834 20.3887L4.78834 21.2771L5.68751 17.9837L5.47084 17.6479C4.58007 16.2254 4.10708 14.5812 4.10584 12.9029C4.10584 7.98456 8.11417 3.97622 13.0325 3.97622C15.4158 3.97622 17.6583 4.90789 19.3375 6.59789C20.1689 7.42552 20.8278 8.40994 21.276 9.4941C21.7242 10.5783 21.9527 11.7406 21.9483 12.9137C21.97 17.8321 17.9617 21.8296 13.0433 21.8296ZM17.94 15.1562C17.6692 15.0262 16.3475 14.3762 16.1092 14.2787C15.86 14.1921 15.6867 14.1487 15.5025 14.4087C15.3183 14.6796 14.8092 15.2862 14.6575 15.4596C14.5058 15.6437 14.3433 15.6654 14.0725 15.5246C13.8017 15.3946 12.935 15.1021 11.9167 14.1921C11.115 13.4771 10.5842 12.5996 10.4217 12.3287C10.27 12.0579 10.4 11.9171 10.5408 11.7762C10.66 11.6571 10.8117 11.4621 10.9417 11.3104C11.0717 11.1587 11.1258 11.0396 11.2125 10.8662C11.2992 10.6821 11.2558 10.5304 11.1908 10.4004C11.1258 10.2704 10.5842 8.94872 10.3675 8.40706C10.1508 7.88706 9.92334 7.95206 9.76084 7.94122H9.24084C9.05667 7.94122 8.77501 8.00622 8.52584 8.27706C8.28751 8.54789 7.59417 9.19789 7.59417 10.5196C7.59417 11.8412 8.55834 13.1196 8.68834 13.2929C8.81834 13.4771 10.5842 16.1854 13.2708 17.3446C13.91 17.6262 14.4083 17.7887 14.7983 17.9079C15.4375 18.1137 16.0225 18.0812 16.4883 18.0162C17.0083 17.9404 18.0808 17.3662 18.2975 16.7379C18.525 16.1096 18.525 15.5787 18.4492 15.4596C18.3733 15.3404 18.2108 15.2862 17.94 15.1562Z" fill="white"/>
</svg>
